<mxfile host="app.diagrams.net" agent="Mozilla/5.0 (Windows NT 10.0; Win64; x64) AppleWebKit/537.36 (KHTML, like Gecko) Chrome/133.0.0.0 Safari/537.36" version="26.1.0">
  <diagram name="第 1 页" id="YWmXliXydCCr94GNQsqV">
    <mxGraphModel dx="1238" dy="703" grid="1" gridSize="10" guides="1" tooltips="1" connect="1" arrows="1" fold="1" page="1" pageScale="1" pageWidth="827" pageHeight="1169" math="0" shadow="0">
      <root>
        <mxCell id="0" />
        <mxCell id="1" parent="0" />
        <mxCell id="x54DkUL69NAiBly2_AU8-1" value="开始" style="ellipse;whiteSpace=wrap;html=1;fillColor=#D5E8D4;strokeColor=#82B366;" vertex="1" parent="1">
          <mxGeometry x="250" y="50" width="100" height="60" as="geometry" />
        </mxCell>
        <mxCell id="x54DkUL69NAiBly2_AU8-2" value="选择上传方式" style="rounded=1;whiteSpace=wrap;html=1;fillColor=#FFF2CC;strokeColor=#D6B656;" vertex="1" parent="1">
          <mxGeometry x="200" y="150" width="200" height="60" as="geometry" />
        </mxCell>
        <mxCell id="x54DkUL69NAiBly2_AU8-3" value="拖拽文件上传" style="rounded=1;whiteSpace=wrap;html=1;" vertex="1" parent="1">
          <mxGeometry x="50" y="250" width="180" height="60" as="geometry" />
        </mxCell>
        <mxCell id="x54DkUL69NAiBly2_AU8-4" value="点击上传" style="rounded=1;whiteSpace=wrap;html=1;" vertex="1" parent="1">
          <mxGeometry x="300" y="250" width="180" height="60" as="geometry" />
        </mxCell>
        <mxCell id="x54DkUL69NAiBly2_AU8-5" value="点击‘上传文件’按钮" style="rounded=1;whiteSpace=wrap;html=1;fillColor=#DAE8FC;strokeColor=#6C8EBF;" vertex="1" parent="1">
          <mxGeometry x="200" y="350" width="200" height="60" as="geometry" />
        </mxCell>
        <mxCell id="x54DkUL69NAiBly2_AU8-6" value="检查是否为.sql文件" style="rhombus;whiteSpace=wrap;html=1;fillColor=#F8CECC;strokeColor=#B85450;" vertex="1" parent="1">
          <mxGeometry x="200" y="450" width="200" height="80" as="geometry" />
        </mxCell>
        <mxCell id="x54DkUL69NAiBly2_AU8-19" style="edgeStyle=orthogonalEdgeStyle;rounded=0;orthogonalLoop=1;jettySize=auto;html=1;exitX=0;exitY=0.5;exitDx=0;exitDy=0;entryX=0;entryY=0.5;entryDx=0;entryDy=0;" edge="1" parent="1" source="x54DkUL69NAiBly2_AU8-7" target="x54DkUL69NAiBly2_AU8-2">
          <mxGeometry relative="1" as="geometry" />
        </mxCell>
        <mxCell id="x54DkUL69NAiBly2_AU8-7" value="错误：非.sql文件\n手动移除异常文件" style="rounded=1;whiteSpace=wrap;html=1;fillColor=#F8CECC;strokeColor=#B85450;" vertex="1" parent="1">
          <mxGeometry x="50" y="550" width="200" height="60" as="geometry" />
        </mxCell>
        <mxCell id="x54DkUL69NAiBly2_AU8-8" value="上传数据存入sqls表" style="rounded=1;whiteSpace=wrap;html=1;fillColor=#D5E8D4;strokeColor=#82B366;" vertex="1" parent="1">
          <mxGeometry x="350" y="550" width="200" height="60" as="geometry" />
        </mxCell>
        <mxCell id="x54DkUL69NAiBly2_AU8-9" value="结束" style="ellipse;whiteSpace=wrap;html=1;fillColor=#D5E8D4;strokeColor=#82B366;" vertex="1" parent="1">
          <mxGeometry x="250" y="650" width="100" height="60" as="geometry" />
        </mxCell>
        <mxCell id="x54DkUL69NAiBly2_AU8-10" edge="1" parent="1" source="x54DkUL69NAiBly2_AU8-1" target="x54DkUL69NAiBly2_AU8-2">
          <mxGeometry relative="1" as="geometry" />
        </mxCell>
        <mxCell id="x54DkUL69NAiBly2_AU8-11" edge="1" parent="1" source="x54DkUL69NAiBly2_AU8-2" target="x54DkUL69NAiBly2_AU8-3">
          <mxGeometry relative="1" as="geometry" />
        </mxCell>
        <mxCell id="x54DkUL69NAiBly2_AU8-12" edge="1" parent="1" source="x54DkUL69NAiBly2_AU8-2" target="x54DkUL69NAiBly2_AU8-4">
          <mxGeometry relative="1" as="geometry" />
        </mxCell>
        <mxCell id="x54DkUL69NAiBly2_AU8-13" edge="1" parent="1" source="x54DkUL69NAiBly2_AU8-3" target="x54DkUL69NAiBly2_AU8-5">
          <mxGeometry relative="1" as="geometry" />
        </mxCell>
        <mxCell id="x54DkUL69NAiBly2_AU8-14" edge="1" parent="1" source="x54DkUL69NAiBly2_AU8-4" target="x54DkUL69NAiBly2_AU8-5">
          <mxGeometry relative="1" as="geometry" />
        </mxCell>
        <mxCell id="x54DkUL69NAiBly2_AU8-15" edge="1" parent="1" source="x54DkUL69NAiBly2_AU8-5" target="x54DkUL69NAiBly2_AU8-6">
          <mxGeometry relative="1" as="geometry" />
        </mxCell>
        <mxCell id="x54DkUL69NAiBly2_AU8-16" value="否" edge="1" parent="1" source="x54DkUL69NAiBly2_AU8-6" target="x54DkUL69NAiBly2_AU8-7">
          <mxGeometry relative="1" as="geometry" />
        </mxCell>
        <mxCell id="x54DkUL69NAiBly2_AU8-17" value="是" edge="1" parent="1" source="x54DkUL69NAiBly2_AU8-6" target="x54DkUL69NAiBly2_AU8-8">
          <mxGeometry relative="1" as="geometry" />
        </mxCell>
        <mxCell id="x54DkUL69NAiBly2_AU8-18" edge="1" parent="1" source="x54DkUL69NAiBly2_AU8-8" target="x54DkUL69NAiBly2_AU8-9">
          <mxGeometry relative="1" as="geometry" />
        </mxCell>
      </root>
    </mxGraphModel>
  </diagram>
</mxfile>
